# File created by Blade
# Date/Time:  Fri Jan 16 14:33:41 2015
# Frame Rate: 120.000 fps
#------------------------------------------------------
:FULLY-SPECIFIED
:DEGREES
3634
root 19.201070 35.593225 -25.409134 -170.815657 -5.803516 -179.312035
Spine -16.976152 -2.992357 -0.571495
Head 10.529418 -5.771106 2.108842
LeftShoulder -12.820827 -29.131853 21.862044
LeftArm 4.280411 1.923478 -5.435606
LeftForeArm 10.899864 -0.000000 -1.747626
LeftHand -5.470500 -0.000000 -12.577698
LeftHandThumb1 -26.253704 0.000000 33.147579
RightShoulder -10.865896 -9.535921 -9.843661
RightArm 5.110556 48.766780 15.157055
RightForeArm -32.886668 -0.000000 7.645930
RightHand -7.714000 -0.000000 2.978175
RightHandThumb1 -24.326973 -0.000000 -32.862282
LeftUpLeg 0.577702 6.854086 1.042859
LeftLeg -5.902180 -0.000000 0.000000
LeftFoot -20.904253 24.994166 -15.692126
LeftToeBase 24.708871 -0.000000 -0.000000
RightUpLeg 0.736519 -13.527959 3.346500
RightLeg -4.494157 -0.000000 0.000000
RightFoot -22.439633 -25.378255 17.835655
RightToeBase 21.860070 -0.000000 -0.000000
3635
root 19.203427 35.593588 -25.405568 -170.805191 -5.790894 -179.302178
Spine -16.973184 -2.976750 -0.584763
Head 10.481716 -5.817477 2.142715
LeftShoulder -12.820937 -29.115064 21.867848
LeftArm 4.319104 1.900223 -5.431945
LeftForeArm 10.926980 -0.000000 -1.754146
LeftHand -5.483950 -0.000000 -12.552841
LeftHandThumb1 -26.253704 0.000000 33.147579
RightShoulder -10.898192 -9.542629 -9.818720
RightArm 5.155228 48.784654 15.176958
RightForeArm -32.912364 -0.000000 7.654457
RightHand -7.774020 -0.000000 2.950164
RightHandThumb1 -24.326973 -0.000000 -32.862282
LeftUpLeg 0.566139 6.838596 1.052730
LeftLeg -5.907676 -0.000000 0.000000
LeftFoot -20.930072 25.025566 -15.718767
LeftToeBase 24.585743 -0.000000 -0.000000
RightUpLeg 0.717163 -13.492019 3.360195
RightLeg -4.491779 -0.000000 0.000000
RightFoot -22.447303 -25.384994 17.863361
RightToeBase 21.867126 -0.000000 -0.000000
3636
root 19.205533 35.593323 -25.402351 -170.802641 -5.775765 -179.297853
Spine -16.959865 -2.978557 -0.598597
Head 10.436212 -5.847112 2.165275
LeftShoulder -12.824733 -29.130391 21.881750
LeftArm 4.319793 1.913351 -5.415596
LeftForeArm 10.933188 -0.000000 -1.732704
LeftHand -5.489086 0.000000 -12.536598
LeftHandThumb1 -26.253704 0.000000 33.147579
RightShoulder -10.904398 -9.556515 -9.805140
RightArm 5.186191 48.787651 15.201982
RightForeArm -32.867783 0.000000 7.672042
RightHand -7.833730 -0.000000 2.997249
RightHandThumb1 -24.326973 -0.000000 -32.862282
LeftUpLeg 0.572238 6.789667 1.060813
LeftLeg -5.927502 -0.000000 0.000000
LeftFoot -20.913427 25.081982 -15.708010
LeftToeBase 24.511660 -0.000000 -0.000000
RightUpLeg 0.713927 -13.495006 3.368643
RightLeg -4.505761 -0.000000 0.000000
RightFoot -22.430585 -25.333082 17.837298
RightToeBase 22.003794 -0.000000 -0.000000
3637
root 19.207215 35.593394 -25.398549 -170.797646 -5.759709 -179.295697
Spine -16.947122 -2.971164 -0.618779
Head 10.396445 -5.867071 2.197366
LeftShoulder -12.826699 -29.139169 21.900689
LeftArm 4.332777 1.910043 -5.412212
LeftForeArm 10.950735 -0.000000 -1.726152
LeftHand -5.482251 -0.000000 -12.531748
LeftHandThumb1 -26.253704 0.000000 33.147579
RightShoulder -10.920642 -9.567516 -9.782491
RightArm 5.226159 48.823464 15.227414
RightForeArm -32.901467 -0.000000 7.672918
RightHand -7.808880 -0.000000 2.997131
RightHandThumb1 -24.326973 -0.000000 -32.862282
LeftUpLeg 0.562963 6.801002 1.061869
LeftLeg -5.927593 -0.000000 0.000000
LeftFoot -20.932216 25.083969 -15.709642
LeftToeBase 24.550787 -0.000000 -0.000000
RightUpLeg 0.701334 -13.483524 3.373107
RightLeg -4.504263 -0.000000 0.000000
RightFoot -22.431247 -25.367814 17.819209
RightToeBase 21.893708 -0.000000 -0.000000
3638
root 19.209199 35.593514 -25.394132 -170.792871 -5.743410 -179.288961
Spine -16.931384 -2.958087 -0.629840
Head 10.366850 -5.904567 2.195802
LeftShoulder -12.831634 -29.139617 21.897252
LeftArm 4.361456 1.897392 -5.395242
LeftForeArm 10.946292 -0.000000 -1.710099
LeftHand -5.497123 0.000000 -12.533292
LeftHandThumb1 -26.253704 0.000000 33.147579
RightShoulder -10.937121 -9.554306 -9.774991
RightArm 5.254835 48.847757 15.262021
RightForeArm -32.955947 -0.000000 7.697489
RightHand -7.858110 -0.000000 2.987925
RightHandThumb1 -24.326973 -0.000000 -32.862282
LeftUpLeg 0.552918 6.799597 1.069015
LeftLeg -5.930340 -0.000000 0.000000
LeftFoot -20.914697 25.090321 -15.712117
LeftToeBase 24.656473 -0.000000 -0.000000
RightUpLeg 0.681492 -13.482773 3.385670
RightLeg -4.497699 -0.000000 0.000000
RightFoot -22.426417 -25.374613 17.810358
RightToeBase 21.886478 -0.000000 -0.000000
3639
root 19.211170 35.593497 -25.390077 -170.788038 -5.734161 -179.279293
Spine -16.918994 -2.958856 -0.635797
Head 10.315493 -5.915862 2.228857
LeftShoulder -12.832572 -29.160772 21.913739
LeftArm 4.359235 1.905011 -5.391708
LeftForeArm 10.948661 -0.000000 -1.683668
LeftHand -5.534413 -0.000000 -12.514631
LeftHandThumb1 -26.253704 0.000000 33.147579
RightShoulder -10.950281 -9.556315 -9.756969
RightArm 5.292681 48.840187 15.281623
RightForeArm -32.944030 -0.000000 7.696579
RightHand -7.852366 -0.000000 2.964343
RightHandThumb1 -24.326973 -0.000000 -32.862282
LeftUpLeg 0.552335 6.775784 1.078451
LeftLeg -5.946231 -0.000000 0.000000
LeftFoot -20.922391 25.128267 -15.707692
LeftToeBase 24.515397 -0.000000 -0.000000
RightUpLeg 0.669407 -13.462878 3.398366
RightLeg -4.497809 -0.000000 0.000000
RightFoot -22.422530 -25.372585 17.810843
RightToeBase 21.898715 -0.000000 -0.000000
3640
root 19.213406 35.593679 -25.385922 -170.784222 -5.721731 -179.270832
Spine -16.903912 -2.949611 -0.646211
Head 10.282543 -5.947415 2.240874
LeftShoulder -12.832829 -29.175217 21.927431
LeftArm 4.376907 1.922622 -5.390745
LeftForeArm 10.924742 0.000000 -1.684489
LeftHand -5.545508 0.000000 -12.512330
LeftHandThumb1 -26.253704 0.000000 33.147579
RightShoulder -10.963399 -9.571812 -9.737943
RightArm 5.311355 48.861332 15.303873
RightForeArm -32.936133 -0.000000 7.732056
RightHand -7.869634 -0.000000 2.963573
RightHandThumb1 -24.326973 -0.000000 -32.862282
LeftUpLeg 0.548029 6.781035 1.086318
LeftLeg -5.959002 -0.000000 0.000000
LeftFoot -20.919925 25.145944 -15.702384
LeftToeBase 24.539494 -0.000000 -0.000000
RightUpLeg 0.656315 -13.448888 3.409604
RightLeg -4.496547 -0.000000 0.000000
RightFoot -22.409388 -25.368846 17.817424
RightToeBase 21.847005 -0.000000 -0.000000
